<svg width="240" height="137" viewBox="0 0 240 137" fill="none" xmlns="http://www.w3.org/2000/svg">
<rect width="240" height="137" rx="12" fill="black" fill-opacity="0.2"/>
<path d="M29.259 69V56.04H27.639L20.88 66.165V56.04H19.26V69H20.88L27.639 58.866V69H29.259ZM42.6476 70.8V69H31.7666V59.28H33.3146V67.542H36.6626V59.28H38.2106V67.542H41.5496V59.28H43.0976V67.542H44.2496V70.8H42.6476ZM53.6535 59.28V69H52.1055V61.836L47.0115 69H45.6885V59.28H47.2365V66.345L52.3395 59.28H53.6535ZM58.7481 69V60.738H55.3641V59.28H63.7341V60.738H60.3501V69H58.7481ZM69.6497 69.27C68.6957 69.27 67.8617 69.06 67.1477 68.64C66.4397 68.214 65.8877 67.623 65.4917 66.867C65.0957 66.105 64.8977 65.217 64.8977 64.203C64.8977 63.141 65.0927 62.223 65.4827 61.449C65.8727 60.669 66.4157 60.069 67.1117 59.649C67.8137 59.223 68.6357 59.01 69.5777 59.01C70.5557 59.01 71.3867 59.235 72.0707 59.685C72.7607 60.135 73.2767 60.777 73.6187 61.611C73.9667 62.445 74.1167 63.438 74.0687 64.59H72.4487V64.014C72.4307 62.82 72.1877 61.929 71.7197 61.341C71.2517 60.747 70.5557 60.45 69.6317 60.45C68.6417 60.45 67.8887 60.768 67.3727 61.404C66.8567 62.04 66.5987 62.952 66.5987 64.14C66.5987 65.286 66.8567 66.174 67.3727 66.804C67.8887 67.434 68.6237 67.749 69.5777 67.749C70.2197 67.749 70.7777 67.602 71.2517 67.308C71.7257 67.014 72.0977 66.591 72.3677 66.039L73.9067 66.57C73.5287 67.428 72.9587 68.094 72.1967 68.568C71.4407 69.036 70.5917 69.27 69.6497 69.27ZM66.0587 64.59V63.303H73.2407V64.59H66.0587ZM84.14 69.27C83.228 69.27 82.46 69.045 81.836 68.595C81.212 68.139 80.738 67.524 80.414 66.75C80.096 65.97 79.937 65.097 79.937 64.131C79.937 63.153 80.096 62.277 80.414 61.503C80.738 60.729 81.212 60.12 81.836 59.676C82.466 59.232 83.237 59.01 84.149 59.01C85.049 59.01 85.823 59.235 86.471 59.685C87.125 60.129 87.626 60.738 87.974 61.512C88.322 62.286 88.496 63.159 88.496 64.131C88.496 65.103 88.322 65.976 87.974 66.75C87.626 67.524 87.125 68.139 86.471 68.595C85.823 69.045 85.046 69.27 84.14 69.27ZM79.667 73.32V59.28H81.098V66.435H81.278V73.32H79.667ZM83.942 67.803C84.584 67.803 85.115 67.641 85.535 67.317C85.955 66.993 86.27 66.555 86.48 66.003C86.69 65.445 86.795 64.821 86.795 64.131C86.795 63.447 86.69 62.829 86.48 62.277C86.276 61.725 85.958 61.287 85.526 60.963C85.1 60.639 84.557 60.477 83.897 60.477C83.267 60.477 82.745 60.633 82.331 60.945C81.917 61.251 81.608 61.68 81.404 62.232C81.2 62.778 81.098 63.411 81.098 64.131C81.098 64.839 81.197 65.472 81.395 66.03C81.599 66.582 81.911 67.017 82.331 67.335C82.751 67.647 83.288 67.803 83.942 67.803ZM93.232 69.27C92.506 69.27 91.897 69.138 91.405 68.874C90.919 68.604 90.55 68.25 90.298 67.812C90.052 67.374 89.929 66.894 89.929 66.372C89.929 65.862 90.025 65.421 90.217 65.049C90.415 64.671 90.691 64.359 91.045 64.113C91.399 63.861 91.822 63.663 92.314 63.519C92.776 63.393 93.292 63.285 93.862 63.195C94.438 63.099 95.02 63.012 95.608 62.934C96.196 62.856 96.745 62.781 97.255 62.709L96.679 63.042C96.697 62.178 96.523 61.539 96.157 61.125C95.797 60.711 95.173 60.504 94.285 60.504C93.697 60.504 93.181 60.639 92.737 60.909C92.299 61.173 91.99 61.605 91.81 62.205L90.289 61.746C90.523 60.894 90.976 60.225 91.648 59.739C92.32 59.253 93.205 59.01 94.303 59.01C95.185 59.01 95.941 59.169 96.571 59.487C97.207 59.799 97.663 60.273 97.939 60.909C98.077 61.209 98.164 61.536 98.2 61.89C98.236 62.238 98.254 62.604 98.254 62.988V69H96.832V66.669L97.165 66.885C96.799 67.671 96.286 68.265 95.626 68.667C94.972 69.069 94.174 69.27 93.232 69.27ZM93.475 67.929C94.051 67.929 94.549 67.827 94.969 67.623C95.395 67.413 95.737 67.14 95.995 66.804C96.253 66.462 96.421 66.09 96.499 65.688C96.589 65.388 96.637 65.055 96.643 64.689C96.655 64.317 96.661 64.032 96.661 63.834L97.219 64.077C96.697 64.149 96.184 64.218 95.68 64.284C95.176 64.35 94.699 64.422 94.249 64.5C93.799 64.572 93.394 64.659 93.034 64.761C92.77 64.845 92.521 64.953 92.287 65.085C92.059 65.217 91.873 65.388 91.729 65.598C91.591 65.802 91.522 66.057 91.522 66.363C91.522 66.627 91.588 66.879 91.72 67.119C91.858 67.359 92.068 67.554 92.35 67.704C92.638 67.854 93.013 67.929 93.475 67.929ZM104.689 69.27C103.705 69.27 102.868 69.051 102.178 68.613C101.494 68.169 100.972 67.56 100.612 66.786C100.252 66.012 100.066 65.13 100.054 64.14C100.066 63.126 100.255 62.235 100.621 61.467C100.993 60.693 101.524 60.09 102.214 59.658C102.904 59.226 103.735 59.01 104.707 59.01C105.733 59.01 106.615 59.262 107.353 59.766C108.097 60.27 108.595 60.96 108.847 61.836L107.263 62.313C107.059 61.749 106.726 61.311 106.264 60.999C105.808 60.687 105.283 60.531 104.689 60.531C104.023 60.531 103.474 60.687 103.042 60.999C102.61 61.305 102.289 61.731 102.079 62.277C101.869 62.817 101.761 63.438 101.755 64.14C101.767 65.22 102.016 66.093 102.502 66.759C102.994 67.419 103.723 67.749 104.689 67.749C105.325 67.749 105.853 67.605 106.273 67.317C106.693 67.023 107.011 66.6 107.227 66.048L108.847 66.471C108.511 67.377 107.986 68.07 107.272 68.55C106.558 69.03 105.697 69.27 104.689 69.27ZM110.675 69V59.28H118.64V69H117.038V60.801H112.277V69H110.675ZM129.116 59.28V69H127.568V61.836L122.474 69H121.151V59.28H122.699V66.345L127.802 59.28H129.116ZM135.732 69.27C134.748 69.27 133.911 69.051 133.221 68.613C132.537 68.169 132.015 67.56 131.655 66.786C131.295 66.012 131.109 65.13 131.097 64.14C131.109 63.126 131.298 62.235 131.664 61.467C132.036 60.693 132.567 60.09 133.257 59.658C133.947 59.226 134.778 59.01 135.75 59.01C136.776 59.01 137.658 59.262 138.396 59.766C139.14 60.27 139.638 60.96 139.89 61.836L138.306 62.313C138.102 61.749 137.769 61.311 137.307 60.999C136.851 60.687 136.326 60.531 135.732 60.531C135.066 60.531 134.517 60.687 134.085 60.999C133.653 61.305 133.332 61.731 133.122 62.277C132.912 62.817 132.804 63.438 132.798 64.14C132.81 65.22 133.059 66.093 133.545 66.759C134.037 67.419 134.766 67.749 135.732 67.749C136.368 67.749 136.896 67.605 137.316 67.317C137.736 67.023 138.054 66.6 138.27 66.048L139.89 66.471C139.554 67.377 139.029 68.07 138.315 68.55C137.601 69.03 136.74 69.27 135.732 69.27ZM144.402 69.27C143.676 69.27 143.067 69.138 142.575 68.874C142.089 68.604 141.72 68.25 141.468 67.812C141.222 67.374 141.099 66.894 141.099 66.372C141.099 65.862 141.195 65.421 141.387 65.049C141.585 64.671 141.861 64.359 142.215 64.113C142.569 63.861 142.992 63.663 143.484 63.519C143.946 63.393 144.462 63.285 145.032 63.195C145.608 63.099 146.19 63.012 146.778 62.934C147.366 62.856 147.915 62.781 148.425 62.709L147.849 63.042C147.867 62.178 147.693 61.539 147.327 61.125C146.967 60.711 146.343 60.504 145.455 60.504C144.867 60.504 144.351 60.639 143.907 60.909C143.469 61.173 143.16 61.605 142.98 62.205L141.459 61.746C141.693 60.894 142.146 60.225 142.818 59.739C143.49 59.253 144.375 59.01 145.473 59.01C146.355 59.01 147.111 59.169 147.741 59.487C148.377 59.799 148.833 60.273 149.109 60.909C149.247 61.209 149.334 61.536 149.37 61.89C149.406 62.238 149.424 62.604 149.424 62.988V69H148.002V66.669L148.335 66.885C147.969 67.671 147.456 68.265 146.796 68.667C146.142 69.069 145.344 69.27 144.402 69.27ZM144.645 67.929C145.221 67.929 145.719 67.827 146.139 67.623C146.565 67.413 146.907 67.14 147.165 66.804C147.423 66.462 147.591 66.09 147.669 65.688C147.759 65.388 147.807 65.055 147.813 64.689C147.825 64.317 147.831 64.032 147.831 63.834L148.389 64.077C147.867 64.149 147.354 64.218 146.85 64.284C146.346 64.35 145.869 64.422 145.419 64.5C144.969 64.572 144.564 64.659 144.204 64.761C143.94 64.845 143.691 64.953 143.457 65.085C143.229 65.217 143.043 65.388 142.899 65.598C142.761 65.802 142.692 66.057 142.692 66.363C142.692 66.627 142.758 66.879 142.89 67.119C143.028 67.359 143.238 67.554 143.52 67.704C143.808 67.854 144.183 67.929 144.645 67.929ZM151.755 69V59.28H153.357V63.375H158.469V59.28H160.071V69H158.469V64.896H153.357V69H151.755ZM170.548 59.28V69H169V61.836L163.906 69H162.583V59.28H164.131V66.345L169.234 59.28H170.548ZM177.281 69.27C176.327 69.27 175.493 69.06 174.779 68.64C174.071 68.214 173.519 67.623 173.123 66.867C172.727 66.105 172.529 65.217 172.529 64.203C172.529 63.141 172.724 62.223 173.114 61.449C173.504 60.669 174.047 60.069 174.743 59.649C175.445 59.223 176.267 59.01 177.209 59.01C178.187 59.01 179.018 59.235 179.702 59.685C180.392 60.135 180.908 60.777 181.25 61.611C181.598 62.445 181.748 63.438 181.7 64.59H180.08V64.014C180.062 62.82 179.819 61.929 179.351 61.341C178.883 60.747 178.187 60.45 177.263 60.45C176.273 60.45 175.52 60.768 175.004 61.404C174.488 62.04 174.23 62.952 174.23 64.14C174.23 65.286 174.488 66.174 175.004 66.804C175.52 67.434 176.255 67.749 177.209 67.749C177.851 67.749 178.409 67.602 178.883 67.308C179.357 67.014 179.729 66.591 179.999 66.039L181.538 66.57C181.16 67.428 180.59 68.094 179.828 68.568C179.072 69.036 178.223 69.27 177.281 69.27ZM173.69 64.59V63.303H180.872V64.59H173.69ZM22.761 93.27C21.759 93.27 20.901 93.03 20.187 92.55C19.473 92.07 18.942 91.377 18.594 90.471L20.214 90.048C20.436 90.6 20.757 91.023 21.177 91.317C21.603 91.605 22.128 91.749 22.752 91.749C23.622 91.749 24.297 91.482 24.777 90.948C25.257 90.408 25.542 89.691 25.632 88.797H21.654V87.474H25.632C25.548 86.604 25.272 85.896 24.804 85.35C24.336 84.804 23.664 84.531 22.788 84.531C22.182 84.531 21.648 84.684 21.186 84.99C20.73 85.296 20.394 85.737 20.178 86.313L18.594 85.836C18.852 84.96 19.353 84.27 20.097 83.766C20.841 83.262 21.732 83.01 22.77 83.01C23.73 83.01 24.555 83.226 25.245 83.658C25.935 84.09 26.463 84.693 26.829 85.467C27.201 86.241 27.387 87.135 27.387 88.149C27.387 89.157 27.204 90.045 26.838 90.813C26.472 91.581 25.944 92.184 25.254 92.622C24.564 93.054 23.733 93.27 22.761 93.27ZM33.9574 97.05V93.18C33.0094 93.33 32.1454 93.228 31.3654 92.874C30.5914 92.514 29.9734 91.935 29.5114 91.137C29.0554 90.333 28.8274 89.337 28.8274 88.149C28.8274 86.955 29.0554 85.956 29.5114 85.152C29.9734 84.348 30.5914 83.769 31.3654 83.415C32.1454 83.055 33.0094 82.95 33.9574 83.1V80.139H35.4154V83.1C36.3634 82.95 37.2244 83.055 37.9984 83.415C38.7784 83.769 39.3964 84.348 39.8524 85.152C40.3144 85.956 40.5454 86.955 40.5454 88.149C40.5454 89.337 40.3144 90.333 39.8524 91.137C39.3964 91.935 38.7784 92.514 37.9984 92.874C37.2244 93.228 36.3634 93.33 35.4154 93.18V97.05H33.9574ZM33.9574 91.713V84.576C33.4714 84.492 33.0184 84.507 32.5984 84.621C32.1784 84.729 31.8094 84.933 31.4914 85.233C31.1734 85.533 30.9244 85.926 30.7444 86.412C30.5644 86.898 30.4744 87.477 30.4744 88.149C30.4744 88.815 30.5644 89.391 30.7444 89.877C30.9304 90.363 31.1824 90.756 31.5004 91.056C31.8244 91.35 32.1964 91.554 32.6164 91.668C33.0364 91.776 33.4834 91.791 33.9574 91.713ZM35.4154 91.713C35.8894 91.791 36.3364 91.776 36.7564 91.668C37.1764 91.56 37.5484 91.359 37.8724 91.065C38.1964 90.765 38.4484 90.372 38.6284 89.886C38.8084 89.4 38.8984 88.821 38.8984 88.149C38.8984 87.471 38.8084 86.889 38.6284 86.403C38.4544 85.917 38.2084 85.524 37.8904 85.224C37.5724 84.924 37.2004 84.72 36.7744 84.612C36.3544 84.504 35.9014 84.492 35.4154 84.576V91.713ZM50.4894 83.28V93H48.9414V85.836L43.8474 93H42.5244V83.28H44.0724V90.345L49.1754 83.28H50.4894ZM57.474 93.27C56.562 93.27 55.794 93.045 55.17 92.595C54.546 92.139 54.072 91.524 53.748 90.75C53.43 89.97 53.271 89.097 53.271 88.131C53.271 87.153 53.43 86.277 53.748 85.503C54.072 84.729 54.546 84.12 55.17 83.676C55.8 83.232 56.571 83.01 57.483 83.01C58.383 83.01 59.157 83.235 59.805 83.685C60.459 84.129 60.96 84.738 61.308 85.512C61.656 86.286 61.83 87.159 61.83 88.131C61.83 89.103 61.656 89.976 61.308 90.75C60.96 91.524 60.459 92.139 59.805 92.595C59.157 93.045 58.38 93.27 57.474 93.27ZM53.001 97.32V83.28H54.432V90.435H54.612V97.32H53.001ZM57.276 91.803C57.918 91.803 58.449 91.641 58.869 91.317C59.289 90.993 59.604 90.555 59.814 90.003C60.024 89.445 60.129 88.821 60.129 88.131C60.129 87.447 60.024 86.829 59.814 86.277C59.61 85.725 59.292 85.287 58.86 84.963C58.434 84.639 57.891 84.477 57.231 84.477C56.601 84.477 56.079 84.633 55.665 84.945C55.251 85.251 54.942 85.68 54.738 86.232C54.534 86.778 54.432 87.411 54.432 88.131C54.432 88.839 54.531 89.472 54.729 90.03C54.933 90.582 55.245 91.017 55.665 91.335C56.085 91.647 56.622 91.803 57.276 91.803ZM67.943 93.27C66.977 93.27 66.143 93.051 65.441 92.613C64.745 92.175 64.208 91.569 63.83 90.795C63.452 90.021 63.263 89.133 63.263 88.131C63.263 87.111 63.455 86.217 63.839 85.449C64.223 84.681 64.766 84.084 65.468 83.658C66.17 83.226 66.995 83.01 67.943 83.01C68.915 83.01 69.752 83.229 70.454 83.667C71.156 84.099 71.693 84.702 72.065 85.476C72.443 86.244 72.632 87.129 72.632 88.131C72.632 89.145 72.443 90.039 72.065 90.813C71.687 91.581 71.147 92.184 70.445 92.622C69.743 93.054 68.909 93.27 67.943 93.27ZM67.943 91.749C68.951 91.749 69.701 91.413 70.193 90.741C70.685 90.069 70.931 89.199 70.931 88.131C70.931 87.033 70.682 86.16 70.184 85.512C69.686 84.858 68.939 84.531 67.943 84.531C67.265 84.531 66.707 84.684 66.269 84.99C65.831 85.296 65.504 85.719 65.288 86.259C65.072 86.799 64.964 87.423 64.964 88.131C64.964 89.223 65.216 90.099 65.72 90.759C66.224 91.419 66.965 91.749 67.943 91.749ZM74.6045 93V83.28H78.7445C78.9905 83.28 79.2545 83.295 79.5365 83.325C79.8245 83.349 80.0855 83.394 80.3195 83.46C80.8415 83.598 81.2705 83.883 81.6065 84.315C81.9485 84.741 82.1195 85.281 82.1195 85.935C82.1195 86.301 82.0625 86.619 81.9485 86.889C81.8405 87.159 81.6845 87.393 81.4805 87.591C81.3905 87.681 81.2915 87.762 81.1835 87.834C81.0755 87.906 80.9675 87.963 80.8595 88.005C81.0695 88.041 81.2825 88.122 81.4985 88.248C81.8405 88.434 82.1075 88.695 82.2995 89.031C82.4975 89.367 82.5965 89.796 82.5965 90.318C82.5965 90.978 82.4375 91.524 82.1195 91.956C81.8015 92.382 81.3635 92.676 80.8055 92.838C80.5715 92.904 80.3135 92.949 80.0315 92.973C79.7495 92.991 79.4765 93 79.2125 93H74.6045ZM76.2245 91.695H79.1225C79.2485 91.695 79.3985 91.683 79.5725 91.659C79.7525 91.635 79.9115 91.605 80.0495 91.569C80.3615 91.479 80.5865 91.311 80.7245 91.065C80.8685 90.819 80.9405 90.552 80.9405 90.264C80.9405 89.88 80.8325 89.568 80.6165 89.328C80.4065 89.088 80.1275 88.938 79.7795 88.878C79.6535 88.842 79.5155 88.821 79.3655 88.815C79.2215 88.809 79.0925 88.806 78.9785 88.806H76.2245V91.695ZM76.2245 87.483H78.6365C78.8045 87.483 78.9815 87.474 79.1675 87.456C79.3535 87.432 79.5155 87.393 79.6535 87.339C79.9295 87.237 80.1305 87.069 80.2565 86.835C80.3885 86.595 80.4545 86.334 80.4545 86.052C80.4545 85.74 80.3825 85.467 80.2385 85.233C80.1005 84.993 79.8875 84.828 79.5995 84.738C79.4075 84.666 79.1915 84.627 78.9515 84.621C78.7175 84.609 78.5675 84.603 78.5015 84.603H76.2245V87.483ZM95.964 83.28V93H94.416V85.836L89.322 93H87.999V83.28H89.547V90.345L94.65 83.28H95.964ZM105.571 93.27C104.611 93.27 103.762 93.063 103.024 92.649C102.286 92.229 101.704 91.653 101.278 90.921L102.556 90.093C102.91 90.627 103.333 91.038 103.825 91.326C104.317 91.608 104.878 91.749 105.508 91.749C106.168 91.749 106.693 91.599 107.083 91.299C107.473 90.993 107.668 90.582 107.668 90.066C107.668 89.682 107.572 89.388 107.38 89.184C107.188 88.98 106.912 88.839 106.552 88.761C106.192 88.683 105.763 88.644 105.265 88.644H104.257V87.321H105.256C105.886 87.321 106.399 87.219 106.795 87.015C107.191 86.811 107.389 86.463 107.389 85.971C107.389 85.467 107.203 85.101 106.831 84.873C106.465 84.639 106.027 84.522 105.517 84.522C104.977 84.522 104.461 84.636 103.969 84.864C103.477 85.086 103.054 85.368 102.7 85.71L101.728 84.621C102.232 84.105 102.811 83.709 103.465 83.433C104.125 83.151 104.842 83.01 105.616 83.01C106.24 83.01 106.81 83.121 107.326 83.343C107.848 83.559 108.262 83.88 108.568 84.306C108.88 84.726 109.036 85.239 109.036 85.845C109.036 86.361 108.916 86.82 108.676 87.222C108.436 87.624 108.082 87.975 107.614 88.275L107.551 87.708C107.947 87.804 108.274 87.981 108.532 88.239C108.796 88.491 108.991 88.791 109.117 89.139C109.243 89.487 109.306 89.85 109.306 90.228C109.306 90.864 109.138 91.41 108.802 91.866C108.472 92.316 108.025 92.664 107.461 92.91C106.897 93.15 106.267 93.27 105.571 93.27ZM114.044 93.27C113.318 93.27 112.709 93.138 112.217 92.874C111.731 92.604 111.362 92.25 111.11 91.812C110.864 91.374 110.741 90.894 110.741 90.372C110.741 89.862 110.837 89.421 111.029 89.049C111.227 88.671 111.503 88.359 111.857 88.113C112.211 87.861 112.634 87.663 113.126 87.519C113.588 87.393 114.104 87.285 114.674 87.195C115.25 87.099 115.832 87.012 116.42 86.934C117.008 86.856 117.557 86.781 118.067 86.709L117.491 87.042C117.509 86.178 117.335 85.539 116.969 85.125C116.609 84.711 115.985 84.504 115.097 84.504C114.509 84.504 113.993 84.639 113.549 84.909C113.111 85.173 112.802 85.605 112.622 86.205L111.101 85.746C111.335 84.894 111.788 84.225 112.46 83.739C113.132 83.253 114.017 83.01 115.115 83.01C115.997 83.01 116.753 83.169 117.383 83.487C118.019 83.799 118.475 84.273 118.751 84.909C118.889 85.209 118.976 85.536 119.012 85.89C119.048 86.238 119.066 86.604 119.066 86.988V93H117.644V90.669L117.977 90.885C117.611 91.671 117.098 92.265 116.438 92.667C115.784 93.069 114.986 93.27 114.044 93.27ZM114.287 91.929C114.863 91.929 115.361 91.827 115.781 91.623C116.207 91.413 116.549 91.14 116.807 90.804C117.065 90.462 117.233 90.09 117.311 89.688C117.401 89.388 117.449 89.055 117.455 88.689C117.467 88.317 117.473 88.032 117.473 87.834L118.031 88.077C117.509 88.149 116.996 88.218 116.492 88.284C115.988 88.35 115.511 88.422 115.061 88.5C114.611 88.572 114.206 88.659 113.846 88.761C113.582 88.845 113.333 88.953 113.099 89.085C112.871 89.217 112.685 89.388 112.541 89.598C112.403 89.802 112.334 90.057 112.334 90.363C112.334 90.627 112.4 90.879 112.532 91.119C112.67 91.359 112.88 91.554 113.162 91.704C113.45 91.854 113.825 91.929 114.287 91.929ZM121.397 93V83.28H129.362V93H127.76V84.801H122.999V93H121.397ZM139.839 83.28V93H138.291V85.836L133.197 93H131.874V83.28H133.422V90.345L138.525 83.28H139.839ZM146.455 93.27C145.471 93.27 144.634 93.051 143.944 92.613C143.26 92.169 142.738 91.56 142.378 90.786C142.018 90.012 141.832 89.13 141.82 88.14C141.832 87.126 142.021 86.235 142.387 85.467C142.759 84.693 143.29 84.09 143.98 83.658C144.67 83.226 145.501 83.01 146.473 83.01C147.499 83.01 148.381 83.262 149.119 83.766C149.863 84.27 150.361 84.96 150.613 85.836L149.029 86.313C148.825 85.749 148.492 85.311 148.03 84.999C147.574 84.687 147.049 84.531 146.455 84.531C145.789 84.531 145.24 84.687 144.808 84.999C144.376 85.305 144.055 85.731 143.845 86.277C143.635 86.817 143.527 87.438 143.521 88.14C143.533 89.22 143.782 90.093 144.268 90.759C144.76 91.419 145.489 91.749 146.455 91.749C147.091 91.749 147.619 91.605 148.039 91.317C148.459 91.023 148.777 90.6 148.993 90.048L150.613 90.471C150.277 91.377 149.752 92.07 149.038 92.55C148.324 93.03 147.463 93.27 146.455 93.27ZM160.405 83.28V93H158.857V85.836L153.763 93H152.44V83.28H153.988V90.345L159.091 83.28H160.405ZM19.251 117V107.28H20.628L24.318 114.822L28.008 107.28H29.385V117H27.837V110.619L24.741 117H23.895L20.799 110.619V117H19.251ZM39.8547 107.28V117H38.3067V109.836L33.2127 117H31.8897V107.28H33.4377V114.345L38.5407 107.28H39.8547ZM42.3662 117L42.3752 107.28H43.9952V111.96L48.0722 107.28H50.1512L45.8582 112.14L50.6552 117H48.4142L43.9952 112.32V117H42.3662ZM55.4702 117.27C54.4862 117.27 53.6492 117.051 52.9592 116.613C52.2752 116.169 51.7532 115.56 51.3932 114.786C51.0332 114.012 50.8472 113.13 50.8352 112.14C50.8472 111.126 51.0362 110.235 51.4022 109.467C51.7742 108.693 52.3052 108.09 52.9952 107.658C53.6852 107.226 54.5162 107.01 55.4882 107.01C56.5142 107.01 57.3962 107.262 58.1342 107.766C58.8782 108.27 59.3762 108.96 59.6282 109.836L58.0442 110.313C57.8402 109.749 57.5072 109.311 57.0452 108.999C56.5892 108.687 56.0642 108.531 55.4702 108.531C54.8042 108.531 54.2552 108.687 53.8232 108.999C53.3912 109.305 53.0702 109.731 52.8602 110.277C52.6502 110.817 52.5422 111.438 52.5362 112.14C52.5482 113.22 52.7972 114.093 53.2832 114.759C53.7752 115.419 54.5042 115.749 55.4702 115.749C56.1062 115.749 56.6342 115.605 57.0542 115.317C57.4742 115.023 57.7922 114.6 58.0082 114.048L59.6282 114.471C59.2922 115.377 58.7672 116.07 58.0532 116.55C57.3392 117.03 56.4782 117.27 55.4702 117.27ZM65.3414 117.27C64.3754 117.27 63.5414 117.051 62.8394 116.613C62.1434 116.175 61.6064 115.569 61.2284 114.795C60.8504 114.021 60.6614 113.133 60.6614 112.131C60.6614 111.111 60.8534 110.217 61.2374 109.449C61.6214 108.681 62.1644 108.084 62.8664 107.658C63.5684 107.226 64.3934 107.01 65.3414 107.01C66.3134 107.01 67.1504 107.229 67.8524 107.667C68.5544 108.099 69.0914 108.702 69.4634 109.476C69.8414 110.244 70.0304 111.129 70.0304 112.131C70.0304 113.145 69.8414 114.039 69.4634 114.813C69.0854 115.581 68.5454 116.184 67.8434 116.622C67.1414 117.054 66.3074 117.27 65.3414 117.27ZM65.3414 115.749C66.3494 115.749 67.0994 115.413 67.5914 114.741C68.0834 114.069 68.3294 113.199 68.3294 112.131C68.3294 111.033 68.0804 110.16 67.5824 109.512C67.0844 108.858 66.3374 108.531 65.3414 108.531C64.6634 108.531 64.1054 108.684 63.6674 108.99C63.2294 109.296 62.9024 109.719 62.6864 110.259C62.4704 110.799 62.3624 111.423 62.3624 112.131C62.3624 113.223 62.6144 114.099 63.1184 114.759C63.6224 115.419 64.3634 115.749 65.3414 115.749ZM72.003 117V107.28H76.143C76.389 107.28 76.653 107.295 76.935 107.325C77.223 107.349 77.484 107.394 77.718 107.46C78.24 107.598 78.669 107.883 79.005 108.315C79.347 108.741 79.518 109.281 79.518 109.935C79.518 110.301 79.461 110.619 79.347 110.889C79.239 111.159 79.083 111.393 78.879 111.591C78.789 111.681 78.69 111.762 78.582 111.834C78.474 111.906 78.366 111.963 78.258 112.005C78.468 112.041 78.681 112.122 78.897 112.248C79.239 112.434 79.506 112.695 79.698 113.031C79.896 113.367 79.995 113.796 79.995 114.318C79.995 114.978 79.836 115.524 79.518 115.956C79.2 116.382 78.762 116.676 78.204 116.838C77.97 116.904 77.712 116.949 77.43 116.973C77.148 116.991 76.875 117 76.611 117H72.003ZM73.623 115.695H76.521C76.647 115.695 76.797 115.683 76.971 115.659C77.151 115.635 77.31 115.605 77.448 115.569C77.76 115.479 77.985 115.311 78.123 115.065C78.267 114.819 78.339 114.552 78.339 114.264C78.339 113.88 78.231 113.568 78.015 113.328C77.805 113.088 77.526 112.938 77.178 112.878C77.052 112.842 76.914 112.821 76.764 112.815C76.62 112.809 76.491 112.806 76.377 112.806H73.623V115.695ZM73.623 111.483H76.035C76.203 111.483 76.38 111.474 76.566 111.456C76.752 111.432 76.914 111.393 77.052 111.339C77.328 111.237 77.529 111.069 77.655 110.835C77.787 110.595 77.853 110.334 77.853 110.052C77.853 109.74 77.781 109.467 77.637 109.233C77.499 108.993 77.286 108.828 76.998 108.738C76.806 108.666 76.59 108.627 76.35 108.621C76.116 108.609 75.966 108.603 75.9 108.603H73.623V111.483ZM85.3975 117V107.28H89.5375C89.7835 107.28 90.0475 107.295 90.3295 107.325C90.6175 107.349 90.8785 107.394 91.1125 107.46C91.6345 107.598 92.0635 107.883 92.3995 108.315C92.7415 108.741 92.9125 109.281 92.9125 109.935C92.9125 110.301 92.8555 110.619 92.7415 110.889C92.6335 111.159 92.4775 111.393 92.2735 111.591C92.1835 111.681 92.0845 111.762 91.9765 111.834C91.8685 111.906 91.7605 111.963 91.6525 112.005C91.8625 112.041 92.0755 112.122 92.2915 112.248C92.6335 112.434 92.9005 112.695 93.0925 113.031C93.2905 113.367 93.3895 113.796 93.3895 114.318C93.3895 114.978 93.2305 115.524 92.9125 115.956C92.5945 116.382 92.1565 116.676 91.5985 116.838C91.3645 116.904 91.1065 116.949 90.8245 116.973C90.5425 116.991 90.2695 117 90.0055 117H85.3975ZM87.0175 115.695H89.9155C90.0415 115.695 90.1915 115.683 90.3655 115.659C90.5455 115.635 90.7045 115.605 90.8425 115.569C91.1545 115.479 91.3795 115.311 91.5175 115.065C91.6615 114.819 91.7335 114.552 91.7335 114.264C91.7335 113.88 91.6255 113.568 91.4095 113.328C91.1995 113.088 90.9205 112.938 90.5725 112.878C90.4465 112.842 90.3085 112.821 90.1585 112.815C90.0145 112.809 89.8855 112.806 89.7715 112.806H87.0175V115.695ZM87.0175 111.483H89.4295C89.5975 111.483 89.7745 111.474 89.9605 111.456C90.1465 111.432 90.3085 111.393 90.4465 111.339C90.7225 111.237 90.9235 111.069 91.0495 110.835C91.1815 110.595 91.2475 110.334 91.2475 110.052C91.2475 109.74 91.1755 109.467 91.0315 109.233C90.8935 108.993 90.6805 108.828 90.3925 108.738C90.2005 108.666 89.9845 108.627 89.7445 108.621C89.5105 108.609 89.3605 108.603 89.2945 108.603H87.0175V111.483ZM102.14 117V105.561H97.721V104.04H108.161V105.561H103.742V117H102.14ZM112.54 117.27C111.586 117.27 110.752 117.06 110.038 116.64C109.33 116.214 108.778 115.623 108.382 114.867C107.986 114.105 107.788 113.217 107.788 112.203C107.788 111.141 107.983 110.223 108.373 109.449C108.763 108.669 109.306 108.069 110.002 107.649C110.704 107.223 111.526 107.01 112.468 107.01C113.446 107.01 114.277 107.235 114.961 107.685C115.651 108.135 116.167 108.777 116.509 109.611C116.857 110.445 117.007 111.438 116.959 112.59H115.339V112.014C115.321 110.82 115.078 109.929 114.61 109.341C114.142 108.747 113.446 108.45 112.522 108.45C111.532 108.45 110.779 108.768 110.263 109.404C109.747 110.04 109.489 110.952 109.489 112.14C109.489 113.286 109.747 114.174 110.263 114.804C110.779 115.434 111.514 115.749 112.468 115.749C113.11 115.749 113.668 115.602 114.142 115.308C114.616 115.014 114.988 114.591 115.258 114.039L116.797 114.57C116.419 115.428 115.849 116.094 115.087 116.568C114.331 117.036 113.482 117.27 112.54 117.27ZM108.949 112.59V111.303H116.131V112.59H108.949ZM118.063 117V115.623C118.423 115.689 118.696 115.677 118.882 115.587C119.074 115.491 119.215 115.326 119.305 115.092C119.401 114.852 119.479 114.552 119.539 114.192C119.641 113.622 119.728 112.986 119.8 112.284C119.878 111.582 119.947 110.814 120.007 109.98C120.073 109.14 120.133 108.24 120.187 107.28H126.982V117H125.38V108.801H121.645C121.609 109.353 121.564 109.92 121.51 110.502C121.462 111.084 121.411 111.651 121.357 112.203C121.303 112.749 121.243 113.259 121.177 113.733C121.117 114.201 121.051 114.606 120.979 114.948C120.865 115.536 120.706 116.007 120.502 116.361C120.298 116.709 120.004 116.934 119.62 117.036C119.236 117.144 118.717 117.132 118.063 117ZM133.722 117.27C132.768 117.27 131.934 117.06 131.22 116.64C130.512 116.214 129.96 115.623 129.564 114.867C129.168 114.105 128.97 113.217 128.97 112.203C128.97 111.141 129.165 110.223 129.555 109.449C129.945 108.669 130.488 108.069 131.184 107.649C131.886 107.223 132.708 107.01 133.65 107.01C134.628 107.01 135.459 107.235 136.143 107.685C136.833 108.135 137.349 108.777 137.691 109.611C138.039 110.445 138.189 111.438 138.141 112.59H136.521V112.014C136.503 110.82 136.26 109.929 135.792 109.341C135.324 108.747 134.628 108.45 133.704 108.45C132.714 108.45 131.961 108.768 131.445 109.404C130.929 110.04 130.671 110.952 130.671 112.14C130.671 113.286 130.929 114.174 131.445 114.804C131.961 115.434 132.696 115.749 133.65 115.749C134.292 115.749 134.85 115.602 135.324 115.308C135.798 115.014 136.17 114.591 136.44 114.039L137.979 114.57C137.601 115.428 137.031 116.094 136.269 116.568C135.513 117.036 134.664 117.27 133.722 117.27ZM130.131 112.59V111.303H137.313V112.59H130.131ZM140.145 117V107.28H146.895V108.801H141.747V117H140.145ZM153.064 117.27C152.152 117.27 151.384 117.045 150.76 116.595C150.136 116.139 149.662 115.524 149.338 114.75C149.02 113.97 148.861 113.097 148.861 112.131C148.861 111.153 149.02 110.277 149.338 109.503C149.662 108.729 150.136 108.12 150.76 107.676C151.39 107.232 152.161 107.01 153.073 107.01C153.973 107.01 154.747 107.235 155.395 107.685C156.049 108.129 156.55 108.738 156.898 109.512C157.246 110.286 157.42 111.159 157.42 112.131C157.42 113.103 157.246 113.976 156.898 114.75C156.55 115.524 156.049 116.139 155.395 116.595C154.747 117.045 153.97 117.27 153.064 117.27ZM148.591 121.32V107.28H150.022V114.435H150.202V121.32H148.591ZM152.866 115.803C153.508 115.803 154.039 115.641 154.459 115.317C154.879 114.993 155.194 114.555 155.404 114.003C155.614 113.445 155.719 112.821 155.719 112.131C155.719 111.447 155.614 110.829 155.404 110.277C155.2 109.725 154.882 109.287 154.45 108.963C154.024 108.639 153.481 108.477 152.821 108.477C152.191 108.477 151.669 108.633 151.255 108.945C150.841 109.251 150.532 109.68 150.328 110.232C150.124 110.778 150.022 111.411 150.022 112.131C150.022 112.839 150.121 113.472 150.319 114.03C150.523 114.582 150.835 115.017 151.255 115.335C151.675 115.647 152.212 115.803 152.866 115.803ZM162.156 117.27C161.43 117.27 160.821 117.138 160.329 116.874C159.843 116.604 159.474 116.25 159.222 115.812C158.976 115.374 158.853 114.894 158.853 114.372C158.853 113.862 158.949 113.421 159.141 113.049C159.339 112.671 159.615 112.359 159.969 112.113C160.323 111.861 160.746 111.663 161.238 111.519C161.7 111.393 162.216 111.285 162.786 111.195C163.362 111.099 163.944 111.012 164.532 110.934C165.12 110.856 165.669 110.781 166.179 110.709L165.603 111.042C165.621 110.178 165.447 109.539 165.081 109.125C164.721 108.711 164.097 108.504 163.209 108.504C162.621 108.504 162.105 108.639 161.661 108.909C161.223 109.173 160.914 109.605 160.734 110.205L159.213 109.746C159.447 108.894 159.9 108.225 160.572 107.739C161.244 107.253 162.129 107.01 163.227 107.01C164.109 107.01 164.865 107.169 165.495 107.487C166.131 107.799 166.587 108.273 166.863 108.909C167.001 109.209 167.088 109.536 167.124 109.89C167.16 110.238 167.178 110.604 167.178 110.988V117H165.756V114.669L166.089 114.885C165.723 115.671 165.21 116.265 164.55 116.667C163.896 117.069 163.098 117.27 162.156 117.27ZM162.399 115.929C162.975 115.929 163.473 115.827 163.893 115.623C164.319 115.413 164.661 115.14 164.919 114.804C165.177 114.462 165.345 114.09 165.423 113.688C165.513 113.388 165.561 113.055 165.567 112.689C165.579 112.317 165.585 112.032 165.585 111.834L166.143 112.077C165.621 112.149 165.108 112.218 164.604 112.284C164.1 112.35 163.623 112.422 163.173 112.5C162.723 112.572 162.318 112.659 161.958 112.761C161.694 112.845 161.445 112.953 161.211 113.085C160.983 113.217 160.797 113.388 160.653 113.598C160.515 113.802 160.446 114.057 160.446 114.363C160.446 114.627 160.512 114.879 160.644 115.119C160.782 115.359 160.992 115.554 161.274 115.704C161.562 115.854 161.937 115.929 162.399 115.929ZM169.509 117V107.28H170.886L174.576 114.822L178.266 107.28H179.643V117H178.095V110.619L174.999 117H174.153L171.057 110.619V117H169.509ZM186.368 117.27C185.414 117.27 184.58 117.06 183.866 116.64C183.158 116.214 182.606 115.623 182.21 114.867C181.814 114.105 181.616 113.217 181.616 112.203C181.616 111.141 181.811 110.223 182.201 109.449C182.591 108.669 183.134 108.069 183.83 107.649C184.532 107.223 185.354 107.01 186.296 107.01C187.274 107.01 188.105 107.235 188.789 107.685C189.479 108.135 189.995 108.777 190.337 109.611C190.685 110.445 190.835 111.438 190.787 112.59H189.167V112.014C189.149 110.82 188.906 109.929 188.438 109.341C187.97 108.747 187.274 108.45 186.35 108.45C185.36 108.45 184.607 108.768 184.091 109.404C183.575 110.04 183.317 110.952 183.317 112.14C183.317 113.286 183.575 114.174 184.091 114.804C184.607 115.434 185.342 115.749 186.296 115.749C186.938 115.749 187.496 115.602 187.97 115.308C188.444 115.014 188.816 114.591 189.086 114.039L190.625 114.57C190.247 115.428 189.677 116.094 188.915 116.568C188.159 117.036 187.31 117.27 186.368 117.27ZM182.777 112.59V111.303H189.959V112.59H182.777Z" fill="white"/>
<path d="M45.9172 18.137L41.6922 38.062C41.3732 39.468 40.5422 39.818 39.3612 39.156L32.9232 34.412L29.8172 37.4C29.4732 37.744 29.1862 38.031 28.5232 38.031L28.9862 31.475L40.9172 20.694C41.4362 20.232 40.8042 19.975 40.1112 20.438L25.3612 29.726L19.0112 27.738C17.6302 27.307 17.6052 26.357 19.2992 25.694L44.1362 16.125C45.2862 15.694 46.2922 16.381 45.9172 18.138V18.137Z" fill="white"/>
</svg>
