<svg width="926" height="130" viewBox="0 0 926 130" fill="none" xmlns="http://www.w3.org/2000/svg">
<path d="M42.5677 8L85.1351 121.514L42.5676 93.1351L0 121.514L42.5677 8Z" fill="white"/>
<path d="M105 39.2162L8.51367 95.9729L30.3672 39.2162H105Z" fill="#0075FF"/>
<path d="M129.8 119L162.56 18.2H183.63L216.39 119H201.2L171.03 27.02H174.81L144.99 119H129.8ZM146.81 96.25V82.53H199.45V96.25H146.81ZM228.948 119V43.4H241.968V61.74L240.148 59.36C241.082 56.9333 242.295 54.7167 243.788 52.71C245.282 50.6567 247.008 48.9767 248.968 47.67C250.882 46.27 253.005 45.1967 255.338 44.45C257.718 43.6567 260.145 43.19 262.618 43.05C265.092 42.8633 267.472 42.98 269.758 43.4V57.12C267.285 56.4667 264.532 56.28 261.498 56.56C258.512 56.84 255.758 57.7967 253.238 59.43C250.858 60.97 248.968 62.8367 247.568 65.03C246.215 67.2233 245.235 69.6733 244.628 72.38C244.022 75.04 243.718 77.8633 243.718 80.85V119H228.948ZM315.252 121.1C307.739 121.1 301.135 119.467 295.442 116.2C289.795 112.887 285.385 108.29 282.212 102.41C279.085 96.4833 277.522 89.6233 277.522 81.83C277.522 73.57 279.062 66.4067 282.142 60.34C285.269 54.2733 289.609 49.5833 295.162 46.27C300.715 42.9567 307.179 41.3 314.552 41.3C322.252 41.3 328.809 43.0967 334.222 46.69C339.635 50.2367 343.672 55.3 346.332 61.88C349.039 68.46 350.112 76.2767 349.552 85.33H334.922V80.01C334.829 71.2367 333.149 64.75 329.882 60.55C326.662 56.35 321.739 54.25 315.112 54.25C307.785 54.25 302.279 56.56 298.592 61.18C294.905 65.8 293.062 72.4733 293.062 81.2C293.062 89.5067 294.905 95.9467 298.592 100.52C302.279 105.047 307.599 107.31 314.552 107.31C319.125 107.31 323.069 106.283 326.382 104.23C329.742 102.13 332.355 99.1433 334.222 95.27L348.572 99.82C345.632 106.587 341.175 111.837 335.202 115.57C329.229 119.257 322.579 121.1 315.252 121.1ZM288.302 85.33V73.92H342.272V85.33H288.302ZM416.266 119V81.83C416.266 78.89 416.01 75.88 415.496 72.8C415.03 69.6733 414.096 66.78 412.696 64.12C411.343 61.46 409.406 59.3133 406.886 57.68C404.413 56.0467 401.17 55.23 397.156 55.23C394.543 55.23 392.07 55.6733 389.736 56.56C387.403 57.4 385.35 58.7767 383.576 60.69C381.85 62.6033 380.473 65.1233 379.446 68.25C378.466 71.3767 377.976 75.18 377.976 79.66L368.876 76.23C368.876 69.37 370.16 63.3267 372.726 58.1C375.293 52.8267 378.98 48.72 383.786 45.78C388.593 42.84 394.403 41.37 401.216 41.37C406.443 41.37 410.83 42.21 414.376 43.89C417.923 45.57 420.793 47.7867 422.986 50.54C425.226 53.2467 426.93 56.21 428.096 59.43C429.263 62.65 430.056 65.8 430.476 68.88C430.896 71.96 431.106 74.6667 431.106 77V119H416.266ZM363.136 119V43.4H376.226V65.24H377.976V119H363.136ZM470.689 121.1C465.089 121.1 460.399 120.073 456.619 118.02C452.839 115.92 449.969 113.167 448.009 109.76C446.096 106.307 445.139 102.527 445.139 98.42C445.139 94.5933 445.816 91.2333 447.169 88.34C448.522 85.4467 450.529 82.9967 453.189 80.99C455.849 78.9367 459.116 77.28 462.989 76.02C466.349 75.04 470.152 74.1767 474.399 73.43C478.646 72.6833 483.102 71.9833 487.769 71.33C492.482 70.6767 497.149 70.0233 501.769 69.37L496.449 72.31C496.542 66.3833 495.282 61.9967 492.669 59.15C490.102 56.2567 485.669 54.81 479.369 54.81C475.402 54.81 471.762 55.7433 468.449 57.61C465.136 59.43 462.826 62.4633 461.519 66.71L447.869 62.51C449.736 56.0233 453.282 50.8667 458.509 47.04C463.782 43.2133 470.782 41.3 479.509 41.3C486.276 41.3 492.156 42.4667 497.149 44.8C502.189 47.0867 505.876 50.7267 508.209 55.72C509.422 58.1933 510.169 60.8067 510.449 63.56C510.729 66.3133 510.869 69.2767 510.869 72.45V119H497.919V101.71L500.439 103.95C497.312 109.737 493.322 114.053 488.469 116.9C483.662 119.7 477.736 121.1 470.689 121.1ZM473.279 109.13C477.432 109.13 481.002 108.407 483.989 106.96C486.976 105.467 489.379 103.577 491.199 101.29C493.019 99.0033 494.209 96.6233 494.769 94.15C495.562 91.91 496.006 89.39 496.099 86.59C496.239 83.79 496.309 81.55 496.309 79.87L501.069 81.62C496.449 82.32 492.249 82.95 488.469 83.51C484.689 84.07 481.259 84.63 478.179 85.19C475.146 85.7033 472.439 86.3333 470.059 87.08C468.052 87.78 466.256 88.62 464.669 89.6C463.129 90.58 461.892 91.77 460.959 93.17C460.072 94.57 459.629 96.2733 459.629 98.28C459.629 100.24 460.119 102.06 461.099 103.74C462.079 105.373 463.572 106.68 465.579 107.66C467.586 108.64 470.152 109.13 473.279 109.13ZM557.073 119V18.2H597.813C598.793 18.2 600.007 18.2467 601.453 18.34C602.9 18.3867 604.277 18.5267 605.583 18.76C611.183 19.6467 615.85 21.56 619.583 24.5C623.363 27.44 626.187 31.15 628.053 35.63C629.92 40.11 630.853 45.0567 630.853 50.47C630.853 58.4967 628.8 65.4267 624.693 71.26C620.587 77.0467 614.427 80.6633 606.213 82.11L600.263 82.81H571.703V119H557.073ZM616.013 119L596.133 77.98L610.903 74.2L632.743 119H616.013ZM571.703 68.95H597.253C598.187 68.95 599.213 68.9033 600.333 68.81C601.5 68.7167 602.597 68.5533 603.623 68.32C606.61 67.62 609.013 66.3367 610.833 64.47C612.653 62.5567 613.96 60.3633 614.753 57.89C615.547 55.4167 615.943 52.9433 615.943 50.47C615.943 47.9967 615.547 45.5467 614.753 43.12C613.96 40.6467 612.653 38.4767 610.833 36.61C609.013 34.6967 606.61 33.39 603.623 32.69C602.597 32.41 601.5 32.2233 600.333 32.13C599.213 32.0367 598.187 31.99 597.253 31.99H571.703V68.95ZM669.478 121.1C663.878 121.1 659.188 120.073 655.408 118.02C651.628 115.92 648.758 113.167 646.798 109.76C644.885 106.307 643.928 102.527 643.928 98.42C643.928 94.5933 644.605 91.2333 645.958 88.34C647.311 85.4467 649.318 82.9967 651.978 80.99C654.638 78.9367 657.905 77.28 661.778 76.02C665.138 75.04 668.941 74.1767 673.188 73.43C677.435 72.6833 681.891 71.9833 686.558 71.33C691.271 70.6767 695.938 70.0233 700.558 69.37L695.238 72.31C695.331 66.3833 694.071 61.9967 691.458 59.15C688.891 56.2567 684.458 54.81 678.158 54.81C674.191 54.81 670.551 55.7433 667.238 57.61C663.925 59.43 661.615 62.4633 660.308 66.71L646.658 62.51C648.525 56.0233 652.071 50.8667 657.298 47.04C662.571 43.2133 669.571 41.3 678.298 41.3C685.065 41.3 690.945 42.4667 695.938 44.8C700.978 47.0867 704.665 50.7267 706.998 55.72C708.211 58.1933 708.958 60.8067 709.238 63.56C709.518 66.3133 709.658 69.2767 709.658 72.45V119H696.708V101.71L699.228 103.95C696.101 109.737 692.111 114.053 687.258 116.9C682.451 119.7 676.525 121.1 669.478 121.1ZM672.068 109.13C676.221 109.13 679.791 108.407 682.778 106.96C685.765 105.467 688.168 103.577 689.988 101.29C691.808 99.0033 692.998 96.6233 693.558 94.15C694.351 91.91 694.795 89.39 694.888 86.59C695.028 83.79 695.098 81.55 695.098 79.87L699.858 81.62C695.238 82.32 691.038 82.95 687.258 83.51C683.478 84.07 680.048 84.63 676.968 85.19C673.935 85.7033 671.228 86.3333 668.848 87.08C666.841 87.78 665.045 88.62 663.458 89.6C661.918 90.58 660.681 91.77 659.748 93.17C658.861 94.57 658.418 96.2733 658.418 98.28C658.418 100.24 658.908 102.06 659.888 103.74C660.868 105.373 662.361 106.68 664.368 107.66C666.375 108.64 668.941 109.13 672.068 109.13ZM757.865 121.1C750.818 121.1 744.728 119.35 739.595 115.85C734.508 112.35 730.565 107.59 727.765 101.57C725.012 95.5033 723.635 88.69 723.635 81.13C723.635 73.5233 725.035 66.7333 727.835 60.76C730.635 54.74 734.602 50.0033 739.735 46.55C744.915 43.05 751.052 41.3 758.145 41.3C765.285 41.3 771.282 43.05 776.135 46.55C781.035 50.0033 784.722 54.74 787.195 60.76C789.715 66.78 790.975 73.57 790.975 81.13C790.975 88.69 789.715 95.48 787.195 101.5C784.675 107.52 780.965 112.303 776.065 115.85C771.165 119.35 765.098 121.1 757.865 121.1ZM759.895 107.87C764.702 107.87 768.622 106.727 771.655 104.44C774.688 102.153 776.905 99.0033 778.305 94.99C779.705 90.9767 780.405 86.3567 780.405 81.13C780.405 75.9033 779.682 71.2833 778.235 67.27C776.835 63.2567 774.642 60.13 771.655 57.89C768.715 55.65 764.958 54.53 760.385 54.53C755.532 54.53 751.542 55.72 748.415 58.1C745.288 60.48 742.955 63.6767 741.415 67.69C739.922 71.7033 739.175 76.1833 739.175 81.13C739.175 86.1233 739.922 90.65 741.415 94.71C742.955 98.7233 745.242 101.92 748.275 104.3C751.355 106.68 755.228 107.87 759.895 107.87ZM780.405 119V64.61H778.725V18.2H793.425V119H780.405ZM814.411 31.01V16.8H829.041V31.01H814.411ZM814.411 119V43.4H829.041V119H814.411ZM882.892 121.1C875.332 121.1 868.775 119.397 863.222 115.99C857.668 112.583 853.375 107.893 850.342 101.92C847.355 95.9 845.862 88.97 845.862 81.13C845.862 73.2433 847.402 66.3133 850.482 60.34C853.562 54.32 857.878 49.6533 863.432 46.34C868.985 42.98 875.472 41.3 882.892 41.3C890.452 41.3 897.008 43.0033 902.562 46.41C908.115 49.8167 912.408 54.5067 915.442 60.48C918.475 66.4533 919.992 73.3367 919.992 81.13C919.992 89.0167 918.452 95.97 915.372 101.99C912.338 107.963 908.045 112.653 902.492 116.06C896.938 119.42 890.405 121.1 882.892 121.1ZM882.892 107.31C890.125 107.31 895.515 104.883 899.062 100.03C902.655 95.13 904.452 88.83 904.452 81.13C904.452 73.2433 902.632 66.9433 898.992 62.23C895.398 57.47 890.032 55.09 882.892 55.09C877.992 55.09 873.955 56.21 870.782 58.45C867.608 60.6433 865.252 63.7 863.712 67.62C862.172 71.4933 861.402 75.9967 861.402 81.13C861.402 89.0633 863.222 95.41 866.862 100.17C870.502 104.93 875.845 107.31 882.892 107.31Z" fill="white"/>
</svg>
