<svg width="1105" height="109" viewBox="0 0 1105 109" fill="none" xmlns="http://www.w3.org/2000/svg">
<g clip-path="url(#clip0_413_1741)">
<path fill-rule="evenodd" clip-rule="evenodd" d="M49.9823 28.5049H91.9232C104.898 28.5049 115.416 39.0259 115.416 52.0044C115.416 64.9828 104.898 75.504 91.9232 75.504H49.9823C37.0072 75.504 26.489 64.9828 26.489 52.0044C26.489 39.0259 37.0072 28.5049 49.9823 28.5049ZM49.9823 102C22.3779 102 0 79.6162 0 52.0044C0 24.3925 22.3779 2.00882 49.9823 2.00882H91.9232C119.528 2.00882 141.906 24.3925 141.906 52.0044C141.906 79.6162 119.528 102 91.9232 102H49.9823ZM169 2H141.906V102H169V2Z" fill="#FBFBFB"/>
<path opacity="0.6" d="M255.88 6.85999H279.866L290.452 102H263.92L262.982 83.374H240.202L231.492 102H204.826L255.88 6.85999ZM262.58 65.954L261.508 36.474L247.706 65.954H262.58ZM300.467 102L320.701 6.85999H362.509C367.691 6.85999 372.068 8.2 375.641 10.88C379.304 13.4707 382.073 16.8653 383.949 21.064C385.915 25.2627 386.897 29.6847 386.897 34.33C386.897 37.4567 386.451 40.5833 385.557 43.71C384.664 46.7473 383.369 49.6953 381.671 52.554C380.063 55.4127 378.098 58.0927 375.775 60.594C373.453 63.006 370.862 65.15 368.003 67.026L379.393 102H349.913L340.667 72.788H332.761L326.597 102H300.467ZM352.191 50.008C352.906 50.008 353.71 49.6953 354.603 49.07C355.497 48.4447 356.345 47.5513 357.149 46.39C357.953 45.2287 358.623 43.844 359.159 42.236C359.695 40.628 359.963 38.886 359.963 37.01C359.963 35.402 359.74 34.062 359.293 32.99C358.936 31.918 358.445 31.114 357.819 30.578C357.194 29.9527 356.524 29.64 355.809 29.64H342.007L337.719 50.008H352.191ZM410.926 6.85999H474.442L469.618 29.64H432.232L429.418 43.04H461.31L456.754 64.212H424.862L421.646 79.22H460.238L455.414 102H390.692L410.926 6.85999ZM490.683 6.85999H511.051L535.171 55.234L545.355 6.85999H571.485L551.251 102H530.615L506.495 55.234L496.579 102H470.449L490.683 6.85999ZM613.508 6.85999H637.494L648.08 102H621.548L620.61 83.374H597.83L589.12 102H562.454L613.508 6.85999ZM620.208 65.954L619.136 36.474L605.334 65.954H620.208ZM686.424 102L706.658 6.85999H748.466C753.647 6.85999 758.025 8.2 761.598 10.88C765.261 13.4707 768.03 16.8653 769.906 21.064C771.871 25.2627 772.854 29.6847 772.854 34.33C772.854 37.4567 772.407 40.5833 771.514 43.71C770.621 46.7473 769.325 49.6953 767.628 52.554C766.02 55.4127 764.055 58.0927 761.732 60.594C759.409 63.006 756.819 65.15 753.96 67.026L765.35 102H735.87L726.624 72.788H718.718L712.554 102H686.424ZM738.148 50.008C738.863 50.008 739.667 49.6953 740.56 49.07C741.453 48.4447 742.302 47.5513 743.106 46.39C743.91 45.2287 744.58 43.844 745.116 42.236C745.652 40.628 745.92 38.886 745.92 37.01C745.92 35.402 745.697 34.062 745.25 32.99C744.893 31.918 744.401 31.114 743.776 30.578C743.151 29.9527 742.481 29.64 741.766 29.64H727.964L723.676 50.008H738.148ZM819.931 6.85999H843.917L854.503 102H827.971L827.033 83.374H804.253L795.543 102H768.877L819.931 6.85999ZM826.631 65.954L825.559 36.474L811.757 65.954H826.631ZM884.752 6.85999H919.86C928.258 6.85999 935.181 8.51266 940.63 11.818C946.08 15.1233 950.144 19.59 952.824 25.218C955.504 30.7567 956.844 37.01 956.844 43.978C956.844 52.3753 955.415 60.1027 952.556 67.16C949.698 74.2173 945.678 80.3813 940.496 85.652C935.315 90.8333 929.24 94.8533 922.272 97.712C915.304 100.571 907.756 102 899.626 102H864.518L884.752 6.85999ZM904.45 79.22C908.202 79.22 911.642 78.3713 914.768 76.674C917.895 74.9767 920.575 72.6987 922.808 69.84C925.042 66.892 926.784 63.542 928.034 59.79C929.285 55.9487 929.91 51.9287 929.91 47.73C929.91 44.0673 929.33 40.896 928.168 38.216C927.096 35.536 925.444 33.4367 923.21 31.918C920.977 30.3993 918.252 29.64 915.036 29.64H906.058L895.472 79.22H904.45ZM980.343 6.85999H1006.47L986.239 102H960.109L980.343 6.85999ZM1046.32 102.804C1040.43 102.804 1035.16 101.732 1030.51 99.588C1025.95 97.3547 1022.11 94.362 1018.99 90.61C1015.86 86.858 1013.49 82.6147 1011.88 77.88C1010.28 73.056 1009.47 68.0533 1009.47 62.872C1009.47 57.1547 1010.45 51.5267 1012.42 45.988C1014.47 40.4493 1017.29 35.3127 1020.86 30.578C1024.52 25.754 1028.77 21.5553 1033.59 17.982C1038.51 14.3193 1043.82 11.4607 1049.54 9.40599C1055.26 7.35133 1061.2 6.32399 1067.36 6.32399C1073.26 6.32399 1078.48 7.44066 1083.04 9.674C1087.59 11.818 1091.44 14.766 1094.56 18.518C1097.69 22.27 1100.01 26.558 1101.53 31.382C1103.14 36.1167 1103.94 41.0747 1103.94 46.256C1103.94 51.9733 1102.91 57.6013 1100.86 63.14C1098.89 68.5893 1096.13 73.726 1092.55 78.55C1088.98 83.2847 1084.78 87.4833 1079.96 91.146C1075.13 94.8087 1069.86 97.6673 1064.14 99.722C1058.43 101.777 1052.49 102.804 1046.32 102.804ZM1051.41 79.622C1055.7 79.622 1059.45 78.6393 1062.67 76.674C1065.89 74.7087 1068.57 72.1627 1070.71 69.036C1072.94 65.82 1074.6 62.3807 1075.67 58.718C1076.74 55.0553 1077.28 51.482 1077.28 47.998C1077.28 44.6927 1076.74 41.6553 1075.67 38.886C1074.69 36.0273 1073.08 33.7493 1070.84 32.052C1068.61 30.3547 1065.66 29.506 1062 29.506C1057.8 29.506 1054.09 30.4887 1050.88 32.454C1047.66 34.33 1044.98 36.8313 1042.84 39.958C1040.69 43.0847 1039.04 46.4793 1037.88 50.142C1036.81 53.8047 1036.27 57.378 1036.27 60.862C1036.27 64.1673 1036.76 67.2493 1037.75 70.108C1038.82 72.9667 1040.47 75.2893 1042.7 77.076C1044.94 78.7733 1047.84 79.622 1051.41 79.622Z" fill="white"/>
</g>
<defs>
<clipPath id="clip0_413_1741">
<rect width="1105" height="109" fill="white"/>
</clipPath>
</defs>
</svg>
