<svg width="151" height="21" viewBox="0 0 151 21" fill="none" xmlns="http://www.w3.org/2000/svg">
<path d="M6.94139 1.29248L13.8827 19.6294L6.94137 15.0451L0 19.6294L6.94139 1.29248Z" fill="white"/>
<path d="M17.1219 6.33496L1.38818 15.5033L4.95177 6.33496H17.1219Z" fill="#0075FF"/>
<path d="M21.166 19.2231L26.5081 2.94002H29.9439L35.286 19.2231H32.809L27.8893 4.36479H28.5057L23.643 19.2231H21.166ZM23.9398 15.5481V13.3318H32.5236V15.5481H23.9398ZM37.3338 19.2231V7.01079H39.4569V9.97341L39.1601 9.58895C39.3124 9.19694 39.5102 8.83887 39.7537 8.51471C39.9973 8.18303 40.2788 7.91164 40.5984 7.70056C40.9105 7.47441 41.2567 7.30103 41.6371 7.18041C42.0252 7.05226 42.421 6.97687 42.8242 6.95425C43.2277 6.92409 43.6158 6.94295 43.9885 7.01079V9.2271C43.5853 9.12157 43.1363 9.09141 42.6416 9.13664C42.1547 9.18187 41.7056 9.33641 41.2947 9.60025C40.9066 9.84902 40.5984 10.1506 40.3701 10.5049C40.1495 10.8592 39.9896 11.2549 39.8907 11.6922C39.7918 12.1219 39.7423 12.5779 39.7423 13.0604V19.2231H37.3338ZM51.4071 19.5623C50.182 19.5623 49.1051 19.2985 48.1767 18.7708C47.2559 18.2356 46.5368 17.493 46.0194 16.5432C45.5095 15.5858 45.2546 14.4776 45.2546 13.2187C45.2546 11.8844 45.5057 10.7273 46.008 9.74725C46.5179 8.76725 47.2256 8.00963 48.1311 7.47441C49.0366 6.93918 50.0907 6.67156 51.293 6.67156C52.5486 6.67156 53.6178 6.9618 54.5005 7.54225C55.3832 8.11518 56.0415 8.9331 56.4752 9.99602C56.9167 11.0589 57.0916 12.3216 57.0003 13.7841H54.6146V12.9247C54.5995 11.5075 54.3255 10.4596 53.7928 9.78118C53.2677 9.10271 52.4649 8.76348 51.3843 8.76348C50.1895 8.76348 49.2916 9.13664 48.6904 9.88295C48.0892 10.6293 47.7887 11.7072 47.7887 13.1169C47.7887 14.4588 48.0892 15.4991 48.6904 16.2379C49.2916 16.9692 50.1592 17.3347 51.293 17.3347C52.0387 17.3347 52.6818 17.1688 53.222 16.8372C53.7699 16.4979 54.196 16.0155 54.5005 15.3898L56.8405 16.1248C56.3611 17.2179 55.6343 18.066 54.6603 18.669C53.6863 19.2646 52.6019 19.5623 51.4071 19.5623ZM47.0125 13.7841V11.9409H55.8132V13.7841H47.0125ZM67.8792 19.2231V13.2187C67.8792 12.7438 67.8374 12.2576 67.7536 11.76C67.6776 11.2549 67.5253 10.7876 67.297 10.3579C67.0764 9.92818 66.7605 9.5814 66.3496 9.31756C65.9463 9.05372 65.4175 8.92179 64.7629 8.92179C64.3369 8.92179 63.9336 8.9934 63.553 9.13664C63.1725 9.27233 62.8378 9.49472 62.5485 9.80379C62.267 10.1129 62.0425 10.5199 61.875 11.025C61.7152 11.5301 61.6353 12.1445 61.6353 12.8682L60.1514 12.3141C60.1514 11.2059 60.3608 10.2297 60.7792 9.38541C61.1978 8.53357 61.799 7.87018 62.5827 7.39525C63.3666 6.92033 64.314 6.68287 65.425 6.68287C66.2773 6.68287 66.9927 6.81856 67.571 7.08995C68.1494 7.36133 68.6174 7.71941 68.975 8.16418C69.3402 8.60141 69.6181 9.0801 69.8082 9.60025C69.9985 10.1204 70.1279 10.6293 70.1963 11.1268C70.2648 11.6243 70.2991 12.0616 70.2991 12.4385V19.2231H67.8792ZM59.2154 19.2231V7.01079H61.35V10.5388H61.6353V19.2231H59.2154ZM76.7537 19.5623C75.8406 19.5623 75.0758 19.3964 74.4594 19.0648C73.843 18.7256 73.375 18.2808 73.0554 17.7305C72.7434 17.1727 72.5874 16.5621 72.5874 15.8986C72.5874 15.2805 72.6978 14.7377 72.9184 14.2703C73.139 13.803 73.4663 13.4072 73.9001 13.083C74.3338 12.7513 74.8666 12.4837 75.4981 12.2802C76.046 12.1219 76.6662 11.9824 77.3587 11.8618C78.0513 11.7412 78.7779 11.6281 79.5389 11.5226C80.3075 11.417 81.0685 11.3115 81.8219 11.2059L80.9543 11.6809C80.9695 10.7235 80.7641 10.0149 80.338 9.55502C79.9194 9.08764 79.1965 8.85395 78.1692 8.85395C77.5223 8.85395 76.9287 9.00471 76.3885 9.30625C75.8482 9.60025 75.4715 10.0902 75.2584 10.7763L73.0326 10.0978C73.337 9.04994 73.9152 8.21695 74.7676 7.59879C75.6274 6.98063 76.7689 6.67156 78.192 6.67156C79.2955 6.67156 80.2543 6.86003 81.0685 7.23695C81.8904 7.60634 82.4916 8.19434 82.872 9.00095C83.0698 9.40048 83.1916 9.82264 83.2373 10.2674C83.2829 10.7122 83.3058 11.1909 83.3058 11.7035V19.2231H81.1941V16.4301L81.605 16.7919C81.0951 17.7268 80.4444 18.424 79.6531 18.8839C78.8692 19.3362 77.9029 19.5623 76.7537 19.5623ZM77.1761 17.6287C77.8533 17.6287 78.4355 17.5119 78.9225 17.2782C79.4096 17.037 79.8015 16.7317 80.0982 16.3623C80.395 15.9929 80.5891 15.6084 80.6804 15.2089C80.8097 14.847 80.8821 14.4399 80.8973 13.9876C80.9201 13.5353 80.9315 13.1735 80.9315 12.9021L81.7077 13.1848C80.9543 13.2979 80.2695 13.3996 79.6531 13.4901C79.0367 13.5806 78.4774 13.671 77.9751 13.7615C77.4805 13.8444 77.0391 13.9462 76.651 14.0668C76.3237 14.1799 76.0309 14.3156 75.7721 14.4739C75.521 14.6322 75.3192 14.8244 75.1671 15.0506C75.0225 15.2767 74.9502 15.5519 74.9502 15.876C74.9502 16.1926 75.0301 16.4866 75.1899 16.758C75.3497 17.0218 75.5932 17.2329 75.9205 17.3913C76.2477 17.5496 76.6662 17.6287 77.1761 17.6287ZM90.8401 19.2231V2.94002H97.4835C97.6433 2.94002 97.8412 2.94757 98.077 2.96264C98.313 2.97018 98.5375 2.9928 98.7505 3.03048C99.6637 3.17372 100.425 3.48279 101.033 3.95771C101.65 4.43264 102.11 5.03194 102.415 5.75564C102.719 6.47933 102.871 7.27841 102.871 8.15287C102.871 9.44949 102.536 10.569 101.867 11.5113C101.197 12.446 100.193 13.0302 98.8532 13.2639L97.883 13.377H93.2258V19.2231H90.8401ZM100.451 19.2231L97.2095 12.5968L99.618 11.9862L103.179 19.2231H100.451ZM93.2258 11.1381H97.3922C97.5445 11.1381 97.7118 11.1306 97.8944 11.1155C98.0847 11.1004 98.2636 11.074 98.4309 11.0363C98.918 10.9233 99.3098 10.716 99.6066 10.4144C99.9034 10.1053 100.117 9.75102 100.246 9.35148C100.375 8.95195 100.44 8.5524 100.44 8.15287C100.44 7.75334 100.375 7.35757 100.246 6.96556C100.117 6.56603 99.9034 6.21549 99.6066 5.91395C99.3098 5.60487 98.918 5.39379 98.4309 5.28071C98.2636 5.23548 98.0847 5.20532 97.8944 5.19025C97.7118 5.17518 97.5445 5.16764 97.3922 5.16764H93.2258V11.1381ZM109.17 19.5623C108.256 19.5623 107.492 19.3964 106.875 19.0648C106.259 18.7256 105.791 18.2808 105.471 17.7305C105.159 17.1727 105.003 16.5621 105.003 15.8986C105.003 15.2805 105.114 14.7377 105.334 14.2703C105.555 13.803 105.882 13.4072 106.316 13.083C106.75 12.7513 107.282 12.4837 107.914 12.2802C108.462 12.1219 109.082 11.9824 109.775 11.8618C110.467 11.7412 111.194 11.6281 111.955 11.5226C112.723 11.417 113.484 11.3115 114.238 11.2059L113.37 11.6809C113.385 10.7235 113.18 10.0149 112.754 9.55502C112.335 9.08764 111.612 8.85395 110.585 8.85395C109.938 8.85395 109.345 9.00471 108.804 9.30625C108.264 9.60025 107.887 10.0902 107.674 10.7763L105.448 10.0978C105.753 9.04994 106.331 8.21695 107.184 7.59879C108.043 6.98063 109.185 6.67156 110.608 6.67156C111.711 6.67156 112.67 6.86003 113.484 7.23695C114.306 7.60634 114.907 8.19434 115.288 9.00095C115.486 9.40048 115.608 9.82264 115.653 10.2674C115.699 10.7122 115.722 11.1909 115.722 11.7035V19.2231H113.61V16.4301L114.021 16.7919C113.511 17.7268 112.86 18.424 112.069 18.8839C111.285 19.3362 110.319 19.5623 109.17 19.5623ZM109.592 17.6287C110.269 17.6287 110.851 17.5119 111.338 17.2782C111.826 17.037 112.217 16.7317 112.514 16.3623C112.811 15.9929 113.005 15.6084 113.096 15.2089C113.226 14.847 113.298 14.4399 113.313 13.9876C113.336 13.5353 113.347 13.1735 113.347 12.9021L114.124 13.1848C113.37 13.2979 112.685 13.3996 112.069 13.4901C111.453 13.5806 110.893 13.671 110.391 13.7615C109.896 13.8444 109.455 13.9462 109.067 14.0668C108.74 14.1799 108.447 14.3156 108.188 14.4739C107.937 14.6322 107.735 14.8244 107.583 15.0506C107.438 15.2767 107.366 15.5519 107.366 15.876C107.366 16.1926 107.446 16.4866 107.606 16.758C107.766 17.0218 108.009 17.2329 108.336 17.3913C108.664 17.5496 109.082 17.6287 109.592 17.6287ZM123.583 19.5623C122.434 19.5623 121.44 19.2796 120.603 18.7143C119.774 18.1489 119.131 17.3799 118.674 16.4075C118.225 15.4275 118.001 14.3269 118.001 13.1056C118.001 11.8769 118.229 10.78 118.686 9.8151C119.142 8.84264 119.789 8.07748 120.626 7.51964C121.471 6.95425 122.472 6.67156 123.628 6.67156C124.793 6.67156 125.771 6.95425 126.562 7.51964C127.361 8.07748 127.962 8.84264 128.365 9.8151C128.776 10.7876 128.982 11.8844 128.982 13.1056C128.982 14.3269 128.776 15.4237 128.365 16.3962C127.954 17.3686 127.35 18.1413 126.55 18.7143C125.751 19.2796 124.762 19.5623 123.583 19.5623ZM123.914 17.4252C124.698 17.4252 125.337 17.2405 125.831 16.8711C126.326 16.5017 126.687 15.9929 126.916 15.3446C127.144 14.6963 127.258 13.95 127.258 13.1056C127.258 12.2613 127.14 11.515 126.904 10.8667C126.676 10.2184 126.318 9.71333 125.831 9.35148C125.352 8.98964 124.739 8.80871 123.994 8.80871C123.202 8.80871 122.552 9.00095 122.042 9.38541C121.532 9.76987 121.151 10.2863 120.9 10.9346C120.657 11.5829 120.535 12.3066 120.535 13.1056C120.535 13.9122 120.657 14.6435 120.9 15.2993C121.151 15.9476 121.524 16.464 122.019 16.8485C122.521 17.2329 123.153 17.4252 123.914 17.4252ZM127.258 19.2231V10.437H126.984V2.94002H129.381V19.2231H127.258ZM132.803 5.00933V2.71387H135.189V5.00933H132.803ZM132.803 19.2231V7.01079H135.189V19.2231H132.803ZM143.97 19.5623C142.738 19.5623 141.668 19.2872 140.763 18.7369C139.857 18.1865 139.157 17.4289 138.663 16.464C138.176 15.4916 137.932 14.3721 137.932 13.1056C137.932 11.8316 138.183 10.7122 138.685 9.74725C139.188 8.77479 139.891 8.02094 140.797 7.48571C141.703 6.94295 142.76 6.67156 143.97 6.67156C145.203 6.67156 146.272 6.94671 147.178 7.49702C148.083 8.04734 148.784 8.80495 149.278 9.76987C149.773 10.7348 150.02 11.8467 150.02 13.1056C150.02 14.3796 149.769 15.5029 149.267 16.4753C148.772 17.4402 148.072 18.1978 147.167 18.7482C146.261 19.2909 145.196 19.5623 143.97 19.5623ZM143.97 17.3347C145.15 17.3347 146.029 16.9427 146.607 16.1587C147.193 15.3672 147.486 14.3495 147.486 13.1056C147.486 11.8316 147.189 10.8139 146.596 10.0526C146.01 9.28364 145.135 8.89918 143.97 8.89918C143.171 8.89918 142.513 9.0801 141.996 9.44195C141.478 9.79625 141.094 10.29 140.843 10.9233C140.592 11.5489 140.466 12.2764 140.466 13.1056C140.466 14.3872 140.763 15.4124 141.356 16.1813C141.95 16.9503 142.821 17.3347 143.97 17.3347Z" fill="white"/>
</svg>
