<svg width="133" height="40" viewBox="0 0 133 40" fill="none" xmlns="http://www.w3.org/2000/svg">
<rect width="133" height="40" rx="20" fill="#202020"/>
<path d="M50.05 26V15.2H58.6375V26H57.07V16.6775H51.6175V26H50.05ZM60.8934 26L64.4034 15.2H66.6609L70.1709 26H68.5434L65.3109 16.145H65.7159L62.5209 26H60.8934ZM62.7159 23.5625V22.0925H68.3559V23.5625H62.7159ZM73.9689 26L75.3339 23.2025L71.5689 15.2H73.3314L76.1514 21.5375L79.0464 15.2H80.7189L75.6639 26H73.9689ZM85.8909 26.225C85.1409 26.225 84.4884 26.115 83.9334 25.895C83.3784 25.675 82.9134 25.39 82.5384 25.04C82.1684 24.685 81.8859 24.3075 81.6909 23.9075L83.0559 23.0225C83.1759 23.3175 83.3559 23.595 83.5959 23.855C83.8409 24.115 84.1559 24.3275 84.5409 24.4925C84.9309 24.6525 85.4034 24.7325 85.9584 24.7325C86.5134 24.7325 86.9709 24.65 87.3309 24.485C87.6909 24.315 87.9584 24.09 88.1334 23.81C88.3134 23.525 88.4034 23.205 88.4034 22.85C88.4034 22.435 88.2934 22.115 88.0734 21.89C87.8584 21.66 87.5709 21.5 87.2109 21.41C86.8509 21.315 86.4609 21.26 86.0409 21.245C85.6909 21.235 85.4384 21.2275 85.2834 21.2225C85.1284 21.2125 85.0234 21.2075 84.9684 21.2075C84.9184 21.2075 84.8709 21.2075 84.8259 21.2075V19.7225C84.8809 19.7225 84.9759 19.7225 85.1109 19.7225C85.2509 19.7225 85.3959 19.7225 85.5459 19.7225C85.6959 19.7175 85.8184 19.7125 85.9134 19.7075C86.5334 19.6775 87.0334 19.525 87.4134 19.25C87.7984 18.975 87.9909 18.585 87.9909 18.08C87.9909 17.575 87.8034 17.1775 87.4284 16.8875C87.0584 16.5975 86.5709 16.4525 85.9659 16.4525C85.3909 16.4525 84.8959 16.585 84.4809 16.85C84.0659 17.11 83.7459 17.4325 83.5209 17.8175L82.3659 16.73C82.7259 16.23 83.2184 15.8125 83.8434 15.4775C84.4684 15.1425 85.1909 14.975 86.0109 14.975C86.4759 14.975 86.9259 15.0375 87.3609 15.1625C87.7959 15.2825 88.1859 15.4675 88.5309 15.7175C88.8759 15.9675 89.1484 16.285 89.3484 16.67C89.5534 17.05 89.6559 17.5025 89.6559 18.0275C89.6559 18.5525 89.5484 19.0275 89.3334 19.4525C89.1234 19.8775 88.8409 20.215 88.4859 20.465C88.9809 20.65 89.3684 20.9425 89.6484 21.3425C89.9284 21.7375 90.0684 22.2425 90.0684 22.8575C90.0684 23.5475 89.8859 24.145 89.5209 24.65C89.1609 25.15 88.6659 25.5375 88.0359 25.8125C87.4109 26.0875 86.6959 26.225 85.8909 26.225ZM91.8209 26L95.3309 15.2H97.5884L101.098 26H99.4709L96.2384 16.145H96.6434L93.4484 26H91.8209ZM93.6434 23.5625V22.0925H99.2834V23.5625H93.6434Z" fill="white" fill-opacity="0.8"/>
<rect x="15" y="12" width="5" height="17" fill="white"/>
<rect x="25" y="12" width="5" height="17" fill="white"/>
</svg>
