<svg width="133" height="40" viewBox="0 0 133 40" fill="none" xmlns="http://www.w3.org/2000/svg">
<rect width="133" height="40" rx="20" fill="#0075FF"/>
<path d="M15 28.898L30 20.449L15 12V28.898Z" fill="white"/>
<path d="M44.5575 26.225C43.4775 26.225 42.5575 25.99 41.7975 25.52C41.0375 25.045 40.455 24.385 40.05 23.54C39.65 22.695 39.45 21.715 39.45 20.6C39.45 19.485 39.65 18.505 40.05 17.66C40.455 16.815 41.0375 16.1575 41.7975 15.6875C42.5575 15.2125 43.4775 14.975 44.5575 14.975C45.8025 14.975 46.8325 15.29 47.6475 15.92C48.4675 16.55 49.0375 17.3975 49.3575 18.4625L47.7675 18.89C47.5575 18.135 47.1825 17.5425 46.6425 17.1125C46.1075 16.6825 45.4125 16.4675 44.5575 16.4675C43.7925 16.4675 43.155 16.64 42.645 16.985C42.135 17.33 41.75 17.8125 41.49 18.4325C41.235 19.0525 41.1075 19.775 41.1075 20.6C41.1025 21.425 41.2275 22.1475 41.4825 22.7675C41.7425 23.3875 42.1275 23.87 42.6375 24.215C43.1525 24.56 43.7925 24.7325 44.5575 24.7325C45.4125 24.7325 46.1075 24.5175 46.6425 24.0875C47.1825 23.6525 47.5575 23.06 47.7675 22.31L49.3575 22.7375C49.0375 23.8025 48.4675 24.65 47.6475 25.28C46.8325 25.91 45.8025 26.225 44.5575 26.225ZM50.8641 26V24.6575C51.1191 24.6825 51.3291 24.67 51.4941 24.62C51.6641 24.565 51.8066 24.46 51.9216 24.305C52.0366 24.145 52.1341 23.915 52.2141 23.615C52.2991 23.315 52.3816 22.9275 52.4616 22.4525C52.5716 21.8475 52.6641 21.225 52.7391 20.585C52.8141 19.945 52.8766 19.31 52.9266 18.68C52.9816 18.045 53.0266 17.4325 53.0616 16.8425C53.0966 16.2525 53.1241 15.705 53.1441 15.2H60.2316V26H58.6641V16.6775H54.6141C54.5891 17.0775 54.5591 17.525 54.5241 18.02C54.4891 18.515 54.4466 19.04 54.3966 19.595C54.3466 20.15 54.2841 20.7225 54.2091 21.3125C54.1391 21.9025 54.0491 22.495 53.9391 23.09C53.8491 23.6 53.7391 24.06 53.6091 24.47C53.4791 24.88 53.3041 25.2225 53.0841 25.4975C52.8641 25.7675 52.5766 25.9475 52.2216 26.0375C51.8666 26.1325 51.4141 26.12 50.8641 26ZM64.7892 26L66.1542 23.2025L62.3892 15.2H64.1517L66.9717 21.5375L69.8667 15.2H71.5392L66.4842 26H64.7892ZM73.6143 26V15.2H75.1818V24.5225H78.7818V15.2H80.3493V24.5225H83.9418V15.2H85.5168V26H73.6143ZM87.7682 26L91.2782 15.2H93.5357L97.0457 26H95.4182L92.1857 16.145H92.5907L89.3957 26H87.7682ZM89.5907 23.5625V22.0925H95.2307V23.5625H89.5907ZM101.09 26V16.6775H97.4977V15.2H106.25V16.6775H102.658V26H101.09ZM108.343 26V15.2H109.91V19.0775H112.708C112.808 19.0775 112.935 19.0825 113.09 19.0925C113.25 19.0975 113.398 19.1125 113.533 19.1375C114.133 19.2325 114.633 19.4375 115.033 19.7525C115.438 20.0675 115.74 20.465 115.94 20.945C116.145 21.425 116.248 21.9575 116.248 22.5425C116.248 23.1225 116.148 23.6525 115.948 24.1325C115.748 24.6125 115.445 25.01 115.04 25.325C114.64 25.64 114.138 25.845 113.533 25.94C113.398 25.96 113.253 25.975 113.098 25.985C112.943 25.995 112.813 26 112.708 26H108.343ZM109.91 24.5225H112.648C112.743 24.5225 112.85 24.5175 112.97 24.5075C113.095 24.4975 113.213 24.4775 113.323 24.4475C113.648 24.3725 113.905 24.235 114.095 24.035C114.29 23.83 114.43 23.5975 114.515 23.3375C114.605 23.0725 114.65 22.8075 114.65 22.5425C114.65 22.2775 114.605 22.0125 114.515 21.7475C114.43 21.4825 114.29 21.25 114.095 21.05C113.905 20.845 113.648 20.705 113.323 20.63C113.213 20.6 113.095 20.5825 112.97 20.5775C112.85 20.5675 112.743 20.5625 112.648 20.5625H109.91V24.5225Z" fill="white" fill-opacity="0.8"/>
</svg>
